<svg xmlns="http://www.w3.org/2000/svg" xmlns:xlink="http://www.w3.org/1999/xlink" width="2380" zoomAndPan="magnify" viewBox="0 0 1784.88 1784.99993" height="2380" preserveAspectRatio="xMidYMid meet" version="1.2"><defs><clipPath id="95d6c9707a"><path d="M 0 0.0585938 L 1784.761719 0.0585938 L 1784.761719 1784.9375 L 0 1784.9375 Z M 0 0.0585938 "/></clipPath></defs><g id="c32999574c"><g clip-rule="nonzero" clip-path="url(#95d6c9707a)"><path style=" stroke:none;fill-rule:nonzero;fill:#ffffff;fill-opacity:1;" d="M 0 0.0585938 L 1784.878906 0.0585938 L 1784.878906 1784.941406 L 0 1784.941406 Z M 0 0.0585938 "/><path style=" stroke:none;fill-rule:nonzero;fill:#1f1b1b;fill-opacity:1;" d="M 0 0.0585938 L 1785 0.0585938 L 1785 1785.058594 L 0 1785.058594 Z M 0 0.0585938 "/></g><g style="fill:#cdcdcd;fill-opacity:1;"><g transform="translate(361.157881, 1460.577831)"><path style="stroke:none" d="M 1023.3125 -48.4375 C 922.34375 -7.945312 846.738281 12.296875 796.5 12.296875 C 738.582031 12.296875 691.8125 -2.304688 656.1875 -31.515625 C 620.570312 -60.734375 602.765625 -98.921875 602.765625 -146.078125 C 602.765625 -186.054688 608.144531 -225.523438 618.90625 -264.484375 L 674.265625 -469 C 685.535156 -510.507812 691.171875 -545.109375 691.171875 -572.796875 C 691.171875 -625.585938 665.546875 -651.984375 614.296875 -651.984375 C 561.492188 -651.984375 499.988281 -619.945312 429.78125 -555.875 L 303.6875 0 L 48.4375 0 L 275.25 -979.515625 C 279.863281 -999.503906 282.171875 -1013.597656 282.171875 -1021.796875 C 282.171875 -1052.035156 272.6875 -1073.945312 253.71875 -1087.53125 C 234.75 -1101.113281 198.867188 -1109.695312 146.078125 -1113.28125 L 160.6875 -1170.1875 L 565.078125 -1190.171875 L 575.078125 -1177.875 L 452.078125 -645.828125 L 456.6875 -645.828125 C 560.21875 -736.035156 664.519531 -781.140625 769.59375 -781.140625 C 825.46875 -781.140625 869.675781 -765.890625 902.21875 -735.390625 C 934.769531 -704.898438 951.046875 -666.585938 951.046875 -620.453125 C 951.046875 -575.347656 946.429688 -535.882812 937.203125 -502.0625 L 878.78125 -286.78125 C 864.9375 -236.03125 858.015625 -197.585938 858.015625 -171.453125 C 858.015625 -142.234375 864.675781 -122.113281 878 -111.09375 C 891.332031 -100.070312 914.144531 -94.5625 946.4375 -94.5625 C 973.601562 -94.5625 1005.125 -101.992188 1041 -116.859375 Z M 1023.3125 -48.4375 "/></g></g></g></svg>